<?xml version="1.0" encoding="UTF-8" standalone="no"?>
<!-- Created with Inkscape (http://www.inkscape.org/) -->

<svg
   width="194.78622mm"
   height="204.64459mm"
   viewBox="0 0 194.78622 204.64459"
   version="1.1"
   id="svg1"
   xml:space="preserve"
   inkscape:export-filename="USCO.png"
   inkscape:export-xdpi="96"
   inkscape:export-ydpi="96"
   inkscape:version="1.3 (0e150ed6c4, 2023-07-21)"
   sodipodi:docname="USCO.svg"
   xmlns:inkscape="http://www.inkscape.org/namespaces/inkscape"
   xmlns:sodipodi="http://sodipodi.sourceforge.net/DTD/sodipodi-0.dtd"
   xmlns="http://www.w3.org/2000/svg"
   xmlns:svg="http://www.w3.org/2000/svg"><sodipodi:namedview
     id="namedview1"
     pagecolor="#ffffff"
     bordercolor="#eeeeee"
     borderopacity="1"
     inkscape:showpageshadow="0"
     inkscape:pageopacity="0"
     inkscape:pagecheckerboard="0"
     inkscape:deskcolor="#d1d1d1"
     inkscape:document-units="mm"
     inkscape:zoom="0.43809922"
     inkscape:cx="195.16127"
     inkscape:cy="12.554234"
     inkscape:window-width="1366"
     inkscape:window-height="693"
     inkscape:window-x="0"
     inkscape:window-y="0"
     inkscape:window-maximized="1"
     inkscape:current-layer="layer1" /><defs
     id="defs1" /><g
     inkscape:label="Capa 1"
     inkscape:groupmode="layer"
     id="layer1"
     transform="translate(-7.6068869,-72.154562)"><g
       id="g1"
       transform="translate(-0.6235169,4.0286729)"><path
         style="fill:#768790"
         d="m 86.793349,272.27795 c -22.038692,-2.28095 -42.806106,-8.82139 -56.101911,-17.6686 -6.639156,-4.41779 -8.955003,-6.72802 -11.10513,-11.07823 l -1.87847,-3.80057 -0.134118,-62.19635 -0.134118,-62.19634 -1.608066,-0.66608 c -2.247587,-0.93099 -5.228319,-3.74342 -6.5149267,-6.1471 -1.0118831,-1.89042 -1.0862055,-2.71189 -1.0862055,-12.005519 0,-9.079138 0.089711,-10.128553 0.9976247,-11.66995 0.5486936,-0.931536 1.6310855,-2.166096 2.4053155,-2.743468 1.371901,-1.023076 1.999654,-1.056106 24.691211,-1.299172 L 59.608076,80.557165 65.84323,77.476618 C 73.311034,73.787068 80.558865,71.307621 89.159744,69.500154 94.718591,68.331968 96.720087,68.15862 105,68.128239 c 10.22311,-0.03751 13.41586,0.352079 22.63352,2.76182 6.69183,1.749423 13.06152,4.18455 19.26672,7.365654 l 4.48931,2.301452 23.28352,0.249406 c 22.50971,0.241118 23.3303,0.283533 24.69121,1.276233 0.77423,0.564755 1.91274,2.015227 2.53002,3.223271 1.0369,2.029259 1.12233,2.857919 1.12233,10.886798 0,5.218237 -0.23438,9.472617 -0.58661,10.648287 -0.7407,2.47221 -3.80726,5.98568 -6.53993,7.49302 l -2.10149,1.15918 -0.24941,62.09248 -0.2494,62.09247 -1.57851,3.33187 c -2.08201,4.39467 -4.69595,7.13731 -10.55097,11.07045 -14.19746,9.5372 -34.39804,15.90737 -57.88181,18.25279 -6.10375,0.60961 -30.416303,0.57265 -36.485151,-0.0555 z m 41.401421,-2.14437 c 16.73089,-2.29278 32.07422,-6.58938 42.89787,-12.01273 5.39936,-2.70543 13.57534,-8.37907 16.05988,-11.1446 1.2884,-1.43411 2.85966,-3.88729 3.49169,-5.45152 l 1.14914,-2.84404 0.1525,-62.10214 0.15251,-62.10214 3.08977,-1.80142 c 2.20601,-1.28616 3.51781,-2.48772 4.58622,-4.20079 l 1.49643,-2.39937 v -9.604677 c 0,-8.928696 -0.0727,-9.703794 -1.03308,-11.012989 -2.32459,-3.168915 -2.18586,-3.152526 -26.69436,-3.15338 l -22.2405,-7.75e-4 -5.9424,-2.955729 C 124.07491,68.759916 101.39663,66.806555 79.575811,73.681014 74.56545,75.259484 66.272386,78.78887 62.896022,80.779646 l -2.583629,1.523363 -22.549308,7.75e-4 c -25.204369,8.66e-4 -24.979327,-0.02821 -27.018888,3.490911 -0.8620018,1.487324 -1.0385593,2.82724 -1.1923328,9.048759 -0.2847763,11.521756 0.8545798,14.713226 6.3947198,17.912386 l 2.979593,1.72057 0.139049,62.10214 0.13905,62.10214 1.14914,2.84404 c 1.523692,3.77104 4.619832,7.11461 9.94218,10.73672 11.062043,7.52825 22.69327,12.14187 39.243231,15.56616 6.432991,1.33103 16.257068,2.73671 22.492052,3.2183 6.000201,0.46345 30.665171,-0.15879 36.163891,-0.91233 z m -44.144889,-9.04879 c -15.040383,-1.68801 -29.40384,-5.57054 -40.4038,-10.9214 -8.277261,-4.02642 -13.333569,-7.56093 -14.834198,-10.36952 l -1.127797,-2.11081 -0.249407,-64.45012 c -0.246545,-63.71075 -0.260851,-64.45898 -1.247031,-65.22171 -0.548693,-0.42437 -2.344418,-1.59872 -3.990498,-2.60967 -1.646081,-1.01095 -3.16844,-2.07627 -3.38302,-2.36737 -0.21458,-0.2911 -0.326813,-2.96078 -0.249406,-5.932623 0.121818,-4.676911 0.270913,-5.498407 1.108999,-6.110451 0.800215,-0.584389 4.704097,-0.707109 22.493949,-0.707109 20.220251,0 21.575754,0.05532 22.351218,0.912198 0.666825,0.736833 0.825528,2.008448 0.825528,6.614563 v 5.702362 l -3.986216,2.38885 c -2.19242,1.31387 -4.21261,2.81187 -4.489312,3.3289 -0.773329,1.44497 -0.629666,110.45747 0.148575,112.73959 0.512918,1.50409 1.17515,2.03432 4.782261,3.82904 14.29999,7.11496 35.921548,10.48679 55.209844,8.60986 14.50591,-1.41156 33.39234,-7.19596 36.5334,-11.18918 l 1.08886,-1.38425 v -56.21158 -56.21158 l -1.12233,-1.01708 c -0.61728,-0.5594 -2.24465,-1.6466 -3.61639,-2.41601 -4.31578,-2.42073 -4.2399,-2.28069 -4.2399,-7.824788 0,-4.69609 0.44303,-6.652645 1.69581,-7.489148 0.30186,-0.201559 10.33442,-0.369908 22.29457,-0.374109 20.43893,-0.0072 21.79534,0.04718 22.57126,0.90456 0.66828,0.738436 0.82553,2.014202 0.82553,6.697359 v 5.785156 l -2.86817,1.60813 c -1.5775,0.88448 -3.59769,2.14693 -4.48931,2.80547 l -1.62114,1.19733 -0.003,61.20383 c -0.002,37.27515 -0.19257,62.36213 -0.48804,64.16647 -0.62871,3.83934 -2.11353,5.67386 -7.77641,9.60788 -11.34733,7.88302 -26.25819,13.29288 -44.60677,16.18395 -8.90549,1.40318 -36.923058,1.77943 -47.137769,0.63301 z m 11.223278,-34.18784 c -14.23529,-1.64011 -27.154467,-5.17812 -29.11169,-7.97245 -1.110542,-1.58552 -1.028197,-4.80525 0.180574,-7.06056 0.950982,-1.77432 0.997624,-2.81434 0.997624,-22.24469 v -20.38334 l -1.733032,-1.83755 c -4.451479,-4.71994 -4.418345,-15.97862 0.08822,-29.97658 1.802527,-5.59888 4.176599,-10.87944 5.16624,-11.49107 0.360283,-0.22267 0.124262,-0.79612 -0.682178,-1.65748 -2.313118,-2.47062 -3.665395,-6.11863 -4.608722,-12.43284 -0.371784,-2.48855 0.08311,-3.22749 2.858433,-4.64336 l 1.903916,-0.9713 v -7.524747 c 0,-7.29865 -0.03747,-7.569275 -1.247031,-9.006757 -3.008936,-3.575916 -1.022019,-5.34223 9.966831,-8.860232 15.219723,-4.872487 29.874756,-5.589812 45.093656,-2.207217 5.53601,1.230448 14.38454,4.060315 17.12155,5.475677 2.60657,1.347911 3.01864,3.36315 1.14338,5.591772 -1.20957,1.437482 -1.24703,1.708107 -1.24703,9.006757 v 7.524747 l 1.97857,1.00939 c 2.77794,1.4172 3.16495,2.36243 2.50784,6.1251 -0.86217,4.93691 -1.98739,7.84179 -3.82578,9.87666 l -1.70814,1.89072 1.52148,2.69591 c 2.14767,3.80546 5.75888,15.13444 6.77854,21.26541 1.39881,8.41073 0.35277,15.27631 -2.78561,18.28306 l -1.47403,1.41222 v 20.60919 c 0,19.65621 0.0461,20.69527 0.99762,22.47055 1.20878,2.25531 1.29112,5.47504 0.18058,7.06056 -1.10072,1.5715 -4.88601,3.17432 -11.17424,4.73154 -13.6678,3.38471 -27.57774,4.54397 -38.887569,3.24091 z m 28.182901,-2.88563 c 7.47441,-1.33438 15.23936,-3.28127 18.05575,-4.52709 3.09749,-1.37017 3.91331,-4.06931 2.01459,-6.66524 -0.64687,-0.88439 -0.89937,-0.84962 -6.3392,0.87292 -3.11602,0.9867 -6.05291,1.794 -6.52643,1.794 -0.47351,0 -1.95159,0.91369 -3.2846,2.03043 -3.01566,2.52635 -7.2752,4.73516 -11.00484,5.70661 -4.02944,1.04953 -10.71252,0.9376 -14.1139,-0.2364 -2.356876,-0.81348 -2.850856,-0.84861 -3.512483,-0.24985 -0.54747,0.49545 -2.493242,0.73761 -6.73486,0.83818 l -5.964956,0.14144 5.486936,0.8447 c 7.805743,1.20167 23.641113,0.929 31.923993,-0.5497 z m -5.85295,-3.09013 c 3.82481,-1.26368 8.54058,-4.342 10.56253,-6.89493 5.3234,-6.72134 7.01083,-17.78973 3.78601,-24.83366 -2.07505,-4.53252 -4.62101,-7.38823 -11.12741,-12.48121 -3.36792,-2.63629 -6.04299,-5.03534 -5.94459,-5.33122 0.11723,-0.35253 3.3886,-0.58474 9.49048,-0.67367 l 9.31158,-0.13571 V 154.6198 138.66881 h -9.91807 c -9.70337,0 -9.92409,0.023 -10.19618,1.06351 -0.30356,1.16079 -0.12859,1.18133 -5.07577,-0.59578 -3.94947,-1.41871 -11.524179,-1.18284 -15.667877,0.48789 -10.134384,4.08615 -15.438654,12.80805 -14.937937,24.56269 0.318888,7.48608 3.664273,12.52967 13.186823,19.8808 2.858947,2.20703 5.198085,4.34284 5.198085,4.74626 0,0.61901 -1.440247,0.73349 -9.228029,0.73349 h -9.228028 v 15.962 15.96199 h 9.976247 c 9.643705,0 9.976247,-0.0333 9.976247,-0.99762 0,-1.2464 0.314598,-1.24367 3.188699,0.0277 4.95179,2.19042 10.83811,2.33874 16.64719,0.41947 z m -11.24785,-2.51286 c -2.67404,-0.43115 -5.73771,-1.76155 -8.130709,-3.53077 -1.944954,-1.43797 -3.578356,-1.01384 -4.263882,1.10717 l -0.564272,1.74584 h -5.920289 -5.920289 v -12.2209 -12.22091 l 8.597285,-0.13645 8.597284,-0.13645 3.781002,3.00462 c 2.07955,1.65254 4.16528,3.00462 4.63495,3.00462 1.52757,0 3.07119,-1.47156 3.07119,-2.92783 0,-1.73494 -0.45842,-2.15405 -12.511484,-11.43889 -10.629655,-8.18835 -12.698524,-10.17782 -14.737979,-14.17237 -1.609819,-3.15306 -2.117286,-8.61054 -1.207953,-12.99078 1.945437,-9.37112 10.093769,-15.83913 19.943436,-15.83077 4.15809,0.004 6.08589,0.54868 9.75632,2.75889 3.71695,2.23823 5.42251,2.19508 5.64793,-0.1429 l 0.15631,-1.62114 h 6.46183 6.46182 l -0.13357,12.0962 -0.13357,12.0962 -8.77634,0.13589 -8.77634,0.1359 -3.19516,-2.56486 c -4.30378,-3.45478 -5.09261,-3.78551 -6.62858,-2.7791 -1.49153,0.97729 -2.03367,2.46416 -1.35847,3.72578 0.2755,0.51477 5.17221,4.53877 10.88157,8.94222 11.57588,8.92809 14.56187,11.81872 16.51647,15.98898 1.18104,2.51981 1.32827,3.40455 1.26327,7.59096 -0.0858,5.529 -1.20974,9.28311 -3.85733,12.88446 -4.18549,5.69325 -12.10462,8.71368 -19.65445,7.49639 z m -30.535783,-0.57958 v -3.64291 l -3.550777,-1.1436 c -4.062184,-1.30832 -4.749005,-1.04746 -5.242068,1.99093 -0.400123,2.46567 0.904145,3.81032 5.073603,5.23069 1.90841,0.65013 3.525953,1.18784 3.594539,1.19492 0.06859,0.007 0.124703,-1.62643 0.124703,-3.63003 z m 60.979813,-5.33751 5.36223,-1.66174 v -11.55562 -11.55562 l -4.02219,0.76658 c -3.6624,0.69802 -3.99553,0.85792 -3.72415,1.78763 0.16393,0.56157 0.53775,2.30535 0.83072,3.87506 0.97077,5.20132 -0.85932,13.97795 -3.86023,18.51263 -0.74434,1.12476 -1.01573,1.87369 -0.62896,1.73564 0.37419,-0.13355 3.09335,-0.99061 6.04258,-1.90456 z M 75.819477,201.05572 v -11.93613 l -2.868171,-0.58958 c -1.577494,-0.32426 -3.03652,-0.69012 -3.24228,-0.81302 -0.20576,-0.12289 -0.374109,5.02122 -0.374109,11.43137 v 11.65482 l 2.868171,1.06129 c 1.577494,0.58371 3.03652,1.07616 3.24228,1.09434 0.20576,0.0182 0.374109,-5.33822 0.374109,-11.90309 z m 63.723283,-14.10075 c 2.41343,-0.5151 2.61876,-0.67003 2.61876,-1.97599 0,-1.05783 -0.23938,-1.41706 -0.94427,-1.41706 -0.95913,0 -8.66332,1.49887 -8.92595,1.73657 -0.0789,0.0714 0.13317,0.73672 0.47117,1.47856 0.67127,1.47327 0.70682,1.4742 6.78029,0.17792 z M 91.495575,187.067 c -0.266982,-0.26699 -3.060936,-0.84465 -6.208786,-1.2837 -3.147851,-0.43905 -7.825022,-1.2307 -10.393715,-1.75923 -2.568692,-0.52853 -4.870107,-0.96096 -5.114254,-0.96096 -0.244147,0 -0.443903,0.77546 -0.443903,1.72324 0,1.60314 0.130368,1.74504 1.870546,2.0361 1.028801,0.17207 2.095012,0.38899 2.369359,0.48203 1.288987,0.43718 18.369066,0.21083 17.920753,-0.23748 z m -6.857843,-6.00043 c -3.000825,-2.8475 -4.71986,-4.96829 -5.996781,-7.39827 -1.984272,-3.77608 -1.282927,-3.50505 -7.186082,-2.77701 l -2.119952,0.26145 v 5.18774 5.18774 l 1.870546,0.49748 c 2.516855,0.66938 13.096091,2.51146 16.987548,2.95792 0.358294,0.0411 -1.241581,-1.72157 -3.555279,-3.91705 z m 53.408588,1.70327 4.1152,-0.84867 v -5.10429 c 0,-5.88012 -0.21802,-6.25046 -3.88235,-6.5948 -2.0978,-0.19712 -2.40687,-0.0944 -2.85162,0.94774 -0.49053,1.14943 -0.63424,1.1711 -8.6632,1.30616 l -8.1644,0.13734 4.67271,3.66732 c 2.56999,2.01703 5.42339,4.60588 6.3409,5.75301 1.38216,1.72806 1.89532,2.04274 2.99287,1.83527 0.72858,-0.13773 3.17653,-0.63231 5.43989,-1.09908 z m -61.977436,-19.7838 c 0,-7.71771 1.498994,-12.28262 5.948644,-18.11551 0.322339,-0.42254 -0.465478,-1.46364 -2.609934,-3.44903 -3.663086,-3.39137 -6.058094,-7.82834 -6.530714,-12.09874 l -0.31817,-2.87486 -1.433025,2.40884 c -1.766973,2.97019 -4.869118,12.10862 -6.040057,17.79306 -0.480359,2.33195 -0.877265,6.3777 -0.882013,8.99055 -0.01367,7.52376 1.539537,10.93839 5.534713,12.16769 1.287031,0.39601 3.237919,0.73571 4.335306,0.75489 l 1.99525,0.0349 z m 66.823916,4.19725 c 0.83236,-0.48477 2.06644,-1.88002 2.7424,-3.10055 1.64644,-2.97286 1.96574,-9.35483 0.78484,-15.68709 -1.00654,-5.39733 -4.81995,-17.27095 -6.32797,-19.70309 l -1.08249,-1.74584 -0.91796,3.69967 c -0.50488,2.03482 -1.31083,4.39171 -1.79101,5.23753 -0.7887,1.38926 -0.86031,3.05062 -0.74115,17.19357 l 0.1319,15.65572 2.84404,-0.33426 c 1.56422,-0.18384 3.52505,-0.73089 4.3574,-1.21566 z M 87.736822,140.16828 c 1.204777,-0.8058 3.649653,-1.95067 5.433058,-2.54414 l 3.242553,-1.07906 -4.603742,-1.16375 C 85.921722,133.8932 80.898718,131.57888 76.868223,128.4976 l -3.19116,-2.43962 0.355837,2.68902 c 0.653049,4.93503 3.437611,9.84916 7.215541,12.73383 2.065464,1.5771 2.285583,1.63942 3.256536,0.92199 0.572738,-0.42319 2.027068,-1.42873 3.231845,-2.23454 z m 24.246548,-2.4971 c 0.19041,-0.30808 4.50369,-0.49881 11.28032,-0.49881 h 10.97202 l 1.26939,-2.77271 c 0.69817,-1.52499 1.39514,-4.15951 1.54884,-5.85448 l 0.27944,-3.08178 -2.56403,2.30528 c -4.72779,4.25069 -14.08462,8.02243 -21.66365,8.73263 -3.17944,0.29793 -4.14931,0.77106 -2.74347,1.33833 0.98474,0.39735 1.29113,0.36552 1.62114,-0.16846 z m 6.73397,-3.4697 c 5.15761,-1.28923 11.27765,-4.20768 14.95306,-7.13065 l 2.73217,-2.17281 0.18309,-3.96378 c 0.36279,-7.85402 0.28593,-8.8899 -0.81901,-11.038 -1.3812,-2.68516 -1.91786,-2.97723 -3.24419,-1.7656 -1.87548,1.71329 -4.19046,2.60467 -6.7645,2.60467 -3.36306,0 -4.89428,-0.66962 -7.18806,-3.14344 l -1.94169,-2.09409 -1.4495,1.72701 c -0.79722,0.94985 -1.44949,1.86249 -1.44949,2.0281 0,0.1656 0.87116,0.79071 1.93591,1.38914 2.581,1.4506 5.60985,4.83414 5.22504,5.83692 -0.39009,1.01657 -2.46134,2.06533 -4.93353,2.49807 -1.08791,0.19043 -3.1485,0.90552 -4.57909,1.58908 -3.55906,1.70059 -7.69385,1.70196 -11.25866,0.004 -1.430591,-0.68152 -3.399385,-1.3562 -4.375098,-1.4993 -2.544957,-0.37323 -5.421727,-1.67257 -5.782046,-2.61154 -0.389419,-1.01481 2.821488,-4.42652 5.436116,-5.77608 1.028801,-0.53102 1.870547,-1.18186 1.870547,-1.4463 0,-0.26444 -0.642879,-1.20031 -1.42862,-2.07971 l -1.42862,-1.5989 -1.6383,1.86592 c -2.17404,2.47609 -3.919588,3.31139 -6.919901,3.31139 -3.143159,0 -4.875387,-0.65431 -6.898706,-2.60582 l -1.603933,-1.54702 -1.457961,3.08286 c -1.40036,2.96106 -1.452036,3.32392 -1.307971,9.1845 l 0.149991,6.10164 2.163685,1.87436 c 4.143927,3.5898 11.431819,6.79004 18.545467,8.14362 5.3139,1.01113 17.80541,0.59894 23.2738,-0.76797 z M 90.908059,131.1709 c -1.651178,-0.66367 -2.818019,-3.38446 -2.175839,-5.07352 0.913647,-2.40307 2.424519,-2.97756 6.341695,-2.41135 4.327878,0.62558 16.379545,0.64586 20.607785,0.0347 4.4117,-0.6377 6.4956,0.55729 6.4956,3.72482 0,1.68723 -0.70587,2.808 -2.30484,3.65961 -1.3215,0.70384 -27.230546,0.76266 -28.964401,0.0658 z m 3.367475,-2.24459 c 0,-0.78568 -0.266808,-0.93327 -2.618764,-1.44862 -1.480436,-0.32439 -1.87916,0.50792 -0.77316,1.61392 0.887735,0.88773 3.391924,0.7657 3.391924,-0.1653 z m 19.828266,0.14036 c -0.15265,-0.45902 -2.45134,-0.65946 -8.71299,-0.75975 -7.242602,-0.116 -8.548922,-0.0234 -8.797173,0.62351 -0.254481,0.66317 0.853155,0.75975 8.712993,0.75975 6.98168,0 8.95795,-0.14007 8.79717,-0.62351 z m 6.07488,-0.30853 c 0.65611,-1.22596 0.403,-1.40464 -1.65021,-1.16494 -1.16197,0.13565 -1.79585,0.50642 -1.9638,1.14865 -0.20748,0.79341 0.0267,0.94833 1.4336,0.94833 1.13164,0 1.84473,-0.30481 2.18041,-0.93204 z m -23.426759,-2.62617 c 0.0097,-0.17376 -0.431256,-0.43333 -0.97995,-0.57682 -1.054933,-0.27587 -1.327485,0.69977 -0.67239,2.40693 0.282377,0.73586 0.411507,0.69194 0.979949,-0.33332 0.360093,-0.64947 0.662669,-1.32303 0.672391,-1.49679 z m 19.421639,-0.26088 c 0.0291,-0.3381 -0.36316,-0.46885 -0.94791,-0.31594 -1.17278,0.30669 -1.15012,0.20194 -0.42881,1.98261 l 0.5688,1.40421 0.3791,-1.24704 c 0.2085,-0.68586 0.40147,-1.50659 0.42882,-1.82384 z m -3.06754,0.70152 c -0.15196,-0.45659 -2.23304,-0.64877 -7.77316,-0.71785 -6.293905,-0.0785 -7.565639,0.0263 -7.565639,0.62352 0,0.59387 1.342393,0.71784 7.773159,0.71784 5.99666,0 7.72573,-0.1425 7.56564,-0.62351 z m -19.647727,-0.62352 c -0.314678,-0.82004 -1.949378,-1.01904 -2.398708,-0.29201 -0.309397,0.50062 0.492397,0.93947 1.82856,1.00085 0.564384,0.0259 0.759174,-0.21625 0.570148,-0.70884 z m 25.963607,0.44655 c 1.10654,-0.42462 0.47263,-1.19477 -0.9834,-1.19477 -0.74977,0 -1.2176,0.28749 -1.2176,0.74822 0,0.78257 0.86697,0.95846 2.201,0.44655 z m 21.19138,-4.3819 c 1.25526,-1.33617 2.74952,-5.72313 3.27763,-9.62273 0.34073,-2.51602 0.30997,-2.60489 -1.16573,-3.368 l -1.5157,-0.7838 -0.34784,1.87157 c -0.19132,1.02936 -0.87497,3.42602 -1.51923,5.32592 -1.48688,4.38471 -1.56423,7.76892 -0.17758,7.76892 0.1808,0 0.8326,-0.53634 1.44845,-1.19188 z M 73.138672,121.3877 c 0.206091,-0.82113 -0.149299,-3.03374 -0.941402,-5.86105 -0.699862,-2.49806 -1.4108,-5.16235 -1.57986,-5.92065 -0.302276,-1.35582 -0.33206,-1.36596 -1.792563,-0.61071 -1.71554,0.88714 -1.786054,1.48541 -0.750874,6.37066 1.269152,5.98942 4.198626,9.47246 5.064699,6.02175 z m 35.575168,-1.66595 c 0.9416,-0.27005 2.55434,-1.16791 3.58385,-1.99525 1.4676,-1.1794 2.3629,-1.50425 4.14574,-1.50425 1.25065,0 2.27391,-0.20121 2.27391,-0.44714 0,-0.68552 -3.39865,-3.51513 -5.32588,-4.43417 -1.27436,-0.60769 -1.6545,-1.06202 -1.47213,-1.7594 0.20291,-0.77594 0.0557,-0.87876 -0.84267,-0.58869 -2.45353,0.79218 -7.78726,0.85063 -9.96331,0.10917 -2.176098,-0.74147 -2.186951,-0.73935 -1.971941,0.38541 0.177852,0.93037 -0.186099,1.33189 -2.051875,2.26371 -1.247442,0.623 -2.996106,1.88386 -3.885919,2.80192 l -1.617843,1.66919 h 2.494254 c 1.941811,0 3.040666,0.34758 4.961271,1.56929 3.794263,2.41357 6.266783,2.90697 9.672543,1.93021 z m 30.41975,-11.11873 c 0.0262,-1.03454 -0.27988,-1.50382 -1.21197,-1.85821 -1.04169,-0.39604 -1.24704,-0.80082 -1.24704,-2.45814 v -1.98403 l -3.36698,-1.02722 c -3.41104,-1.04067 -13.41251,-3.157624 -17.6556,-3.73707 -1.72288,-0.235279 -2.38251,-0.566455 -2.57207,-1.291326 -0.23921,-0.914738 -0.7349,-0.974894 -8.03323,-0.974894 -7.326563,0 -7.778291,0.05539 -7.778291,0.95378 0,0.738902 -0.477607,1.026527 -2.119953,1.27668 -5.27557,0.803547 -12.92569,2.467219 -16.460808,3.57974 l -3.865795,1.21658 v 1.98589 c 0,1.65931 -0.205075,2.06386 -1.247031,2.46001 -1.294306,0.4921 -1.562139,1.75714 -0.790378,3.73316 0.334568,0.85662 0.468414,0.74158 0.995554,-0.85567 0.996022,-3.01797 4.643033,-6.64914 7.921624,-7.88721 4.939089,-1.865114 10.854703,-0.70224 14.070349,2.7659 0.685867,0.73972 2.369359,1.93436 3.741093,2.65474 2.047536,1.0753 3.163846,1.30997 6.235156,1.3108 4.32203,10e-4 6.73261,-1.01012 10.02571,-4.20596 6.5532,-6.359667 18.10514,-3.53694 21.768,5.31904 0.9338,2.2577 1.51882,1.89875 1.59166,-0.97659 z m -50.108949,0.64094 c 1.695931,-0.64479 3.754456,-2.88942 3.754456,-4.09387 0,-2.73971 -8.640414,-3.24364 -12.445078,-0.72584 -2.077981,1.37515 -2.095607,1.41106 -1.191904,2.42841 2.364689,2.66206 6.523529,3.66839 9.882526,2.3913 z m 40.325249,-0.0674 c 1.58136,-0.81444 3.3342,-2.50845 3.3342,-3.22228 0,-0.33915 -1.1664,-1.19789 -2.59201,-1.9083 -4.21322,-2.09954 -10.81338,-1.59351 -11.28692,0.86536 -0.2469,1.28206 1.07085,3.03962 2.9868,3.98369 1.92337,0.94772 5.97166,1.09852 7.55793,0.28153 z m -55.525662,-5.6523 v -2.22296 l 3.978807,-1.2569 c 3.863477,-1.220475 11.323605,-2.866628 16.053254,-3.542318 1.694998,-0.242151 2.39132,-0.588625 2.572066,-1.2798 0.23137,-0.884758 0.817714,-0.947756 8.821055,-0.947756 7.92032,0 8.59157,0.07024 8.81439,0.922302 0.19594,0.749263 1.23184,1.083717 5.52134,1.782641 5.98775,0.975633 13.45617,2.789382 16.18409,3.930401 1.597,0.66798 1.85872,1.01425 1.99525,2.63982 0.0864,1.02905 0.43772,1.96317 0.78065,2.07583 0.47654,0.15654 0.62352,-1.26882 0.62352,-6.046913 v -6.251739 l -5.36224,-1.72939 c -2.94922,-0.951164 -6.74338,-2.012918 -8.43146,-2.359454 -2.9254,-0.600538 -3.20591,-0.569274 -5.98575,0.667124 -4.953,2.202966 -8.59478,3.032781 -13.39158,3.051403 -5.26715,0.02045 -8.697824,-0.701312 -13.382114,-2.815388 -3.325527,-1.50085 -3.478499,-1.522201 -6.484561,-0.905092 -1.693279,0.34761 -5.491693,1.410243 -8.440921,2.361407 l -5.362233,1.72939 v 6.210171 c 0,5.187611 0.123201,6.210171 0.748219,6.210171 0.553153,0 0.748218,-0.57954 0.748218,-2.22295 z m 5.486936,-14.379676 c 8.761014,-2.684197 9.787293,-2.752597 13.553119,-0.903305 8.019007,3.937914 17.641357,3.930102 25.666857,-0.02084 3.22238,-1.586368 3.31212,-1.600221 6.32944,-0.977004 1.6834,0.3477 5.53296,1.381705 8.55459,2.297788 l 5.49388,1.665607 1.35656,-1.58373 c 2.37859,-2.776919 2.02446,-3.227104 -4.5811,-5.82362 -7.5255,-2.958131 -21.32251,-5.486951 -29.93629,-5.486951 -10.6676,0 -25.487858,3.167106 -34.293351,7.328527 -1.855032,0.876678 -2.076204,2.081273 -0.623515,3.395939 0.548694,0.49656 0.997625,1.230926 0.997625,1.631924 0,0.456287 0.326616,0.636307 0.872921,0.481124 0.480107,-0.136379 3.454276,-1.038836 6.609264,-2.00546 z"
         id="path3" /><path
         style="fill:#4d636f"
         d="m 90.3578,272.34639 c -23.893442,-1.99607 -45.668587,-8.62084 -60.010136,-18.25721 -7.932752,-5.33017 -11.315942,-9.8279 -12.407936,-16.49552 -0.282546,-1.72521 -0.47669,-27.13857 -0.478407,-62.62344 l -0.0029,-59.71998 -1.62114,-0.83495 C 12.760211,112.83045 10.99416,111.12562 9.7095413,108.49996 8.4347965,105.89447 8.4222769,105.75506 8.5748951,95.865025 8.7439355,84.910798 8.832035,84.57244 12.16299,82.084423 13.500121,81.085669 14.204157,81.05182 36.548899,80.911984 l 23.009027,-0.143994 6.010823,-2.954932 c 6.885521,-3.384936 15.637981,-6.422824 23.21985,-8.059367 4.575942,-0.987715 6.68672,-1.131852 16.710211,-1.141071 10.11946,-0.0093 12.09046,0.124039 16.71022,1.130519 7.58659,1.652847 16.37351,4.703484 22.94536,7.966155 l 5.73635,2.847871 23.19477,0.249406 c 26.15279,0.281213 25.20682,0.136866 27.49175,4.194977 1.02471,1.819915 1.17013,2.847974 1.34694,9.522364 0.32302,12.193688 -0.91342,15.818178 -6.53255,19.149548 l -2.85246,1.69111 v 60.26177 c 0,42.74807 -0.16312,61.03 -0.56129,62.90509 -1.34,6.31048 -4.66383,10.54676 -12.15842,15.49609 -13.63223,9.00256 -30.93292,14.72682 -53.16688,17.59128 -7.26271,0.93567 -29.589944,1.37126 -37.2948,0.72759 z m 41.09497,-2.3873 c 14.31317,-2.25118 27.90801,-6.12057 37.87731,-10.7807 6.0737,-2.83914 15.36965,-8.95151 17.93892,-11.79539 1.04249,-1.15391 2.48695,-3.35952 3.2099,-4.90136 l 1.31445,-2.80333 0.13227,-62.46997 0.13227,-62.46997 1.97381,-1.00697 c 2.91817,-1.48874 5.53059,-3.97204 6.55821,-6.23409 0.76798,-1.6905 0.91006,-3.37037 0.91933,-10.869467 0.0124,-10.008063 -0.3704,-11.664492 -3.07661,-13.314423 -1.59194,-0.970576 -2.46299,-1.006749 -24.28571,-1.008547 l -22.63456,-0.0019 -3.55309,-1.957389 C 132.15847,71.641009 112.05154,67.750311 94.763351,70.052191 83.839891,71.506624 70.778092,75.828989 62.454296,80.743792 l -2.640716,1.559217 -22.798714,0.0019 c -21.426158,0.0018 -22.891208,0.05827 -24.335074,0.938735 -2.7891814,1.70084 -3.2023573,3.409388 -3.2023573,13.242256 0,11.51877 0.7276403,13.30446 6.8492783,16.80872 l 2.609374,1.4937 0.134094,62.44502 0.134095,62.44501 1.357759,2.76206 c 0.746768,1.51914 2.139894,3.67581 3.095835,4.79261 2.343454,2.7378 11.174422,8.62443 17.55547,11.70229 9.970812,4.80937 26.066229,9.33374 39.594261,11.12984 8.933151,1.18604 8.74559,1.17877 26.935869,1.04392 14.4595,-0.10719 18.24759,-0.29092 23.7093,-1.14994 z m -43.41239,-8.63856 c -16.707694,-1.56352 -31.975203,-5.40024 -43.646081,-10.96827 -9.795244,-4.67318 -14.553984,-8.21435 -16.019804,-11.92098 -0.570623,-1.44294 -0.733682,-12.86356 -0.939816,-65.82481 l -0.249406,-64.07897 -2.572448,-1.76426 c -1.414847,-0.97035 -3.266688,-2.14664 -4.115202,-2.61399 l -1.542754,-0.84972 v -5.659782 c 0,-3.736967 0.203356,-5.863135 0.598575,-6.258354 0.447528,-0.447528 6.170289,-0.598575 22.678412,-0.598575 21.56019,0 22.092387,0.02345 22.613088,0.996388 0.311619,0.582266 0.474402,3.209565 0.391659,6.321345 l -0.141591,5.324958 -3.324345,2.03376 c -1.82839,1.11857 -3.79528,2.46392 -4.370866,2.98966 l -1.04652,0.95589 0.13096,56.52097 0.130961,56.52097 1.27149,1.27142 c 2.895179,2.89501 16.974153,7.79106 28.158439,9.79227 5.723187,1.02406 8.036589,1.1594 19.703089,1.1527 14.11145,-0.008 17.82886,-0.40444 28.01787,-2.98722 9.04084,-2.29174 19.2659,-6.65054 20.34912,-8.67455 0.35536,-0.664 0.48057,-19.01194 0.39404,-57.74199 l -0.12683,-56.76873 -4.1152,-2.453 -4.1152,-2.453 v -5.873826 c 0,-5.504378 0.0697,-5.922661 1.10861,-6.650324 0.96144,-0.673418 3.94137,-0.776503 22.44656,-0.776503 25.65481,0 23.33319,-0.736776 23.33319,7.404875 0,6.190658 0.21434,5.822748 -5.0909,8.738338 -1.83978,1.01108 -3.52327,2.11344 -3.74109,2.4497 -0.21782,0.33625 -0.50827,29.24719 -0.64544,64.24653 l -0.24941,63.63516 -1.39412,2.1065 c -1.74839,2.6418 -9.97319,8.1926 -17.30323,11.67772 -10.90528,5.18498 -25.57342,9.0102 -40.52243,10.5676 -7.95582,0.82885 -28.1819,0.94671 -36.05338,0.2101 z m 12.71972,-34.16029 c -0.960219,-0.11259 -3.990504,-0.44556 -6.733972,-0.73994 -6.524925,-0.70012 -16.048603,-2.60308 -21.248528,-4.24574 -6.907925,-2.18221 -8.854578,-5.18616 -6.435557,-9.93093 0.950026,-1.86342 0.997624,-2.94158 0.997624,-22.59743 v -20.64066 l -1.665755,-1.94606 c -1.982782,-2.31643 -2.821391,-4.86495 -3.173058,-9.64285 -0.495267,-6.72891 2.71063,-20.28441 6.656922,-28.14749 l 2.150836,-4.28558 -1.179309,-1.26308 c -2.334431,-2.50025 -4.262779,-8.29249 -4.2787,-12.85206 -0.0071,-2.0391 0.07942,-2.15553 2.522219,-3.39339 l 2.529591,-1.28184 -0.160233,-7.331077 c -0.154576,-7.072267 -0.208659,-7.399569 -1.531966,-9.27123 -0.754454,-1.067084 -1.371734,-2.150562 -1.371734,-2.407729 0,-2.90084 13.353021,-7.744652 26.501943,-9.613587 13.703097,-1.947702 30.238997,0.08329 43.285627,5.316476 4.91792,1.972647 6.51707,3.56094 5.5025,5.465127 -0.34714,0.65154 -0.98732,1.446637 -1.42262,1.766882 -0.65078,0.478778 -0.81978,1.959107 -0.95088,8.329103 l -0.15944,7.746835 2.5288,1.28144 c 2.36268,1.19726 2.52823,1.40376 2.52014,3.14358 -0.0236,5.06139 -2.31992,11.5993 -4.74383,13.50595 l -1.28863,1.01364 1.26935,1.91811 c 1.75448,2.6512 3.52233,7.26361 5.59781,14.60497 1.4146,5.00369 1.81521,7.42283 2.0284,12.24857 0.3279,7.42277 -0.45658,10.75974 -3.16655,13.46972 l -1.78289,1.78289 0.21847,20.54276 c 0.21165,19.90066 0.25219,20.60453 1.29691,22.51878 3.40821,6.2449 -0.68378,9.32284 -16.56034,12.45645 -9.69034,1.91262 -22.68557,3.07357 -27.75315,2.47939 z m 15.64648,-1.94936 c 12.43679,-1.45481 25.06116,-4.65012 27.14785,-6.8713 1.28682,-1.36976 1.40933,-3.30489 0.34012,-5.3725 -0.88966,-1.72042 -0.70079,-1.67638 -3.09467,-0.72155 -1.03435,0.41257 -4.19795,1.41149 -7.03022,2.21982 -4.06779,1.16096 -5.5713,1.85069 -7.15706,3.28333 -5.94898,5.37455 -16.91382,7.61525 -24.3512,4.97623 -1.64885,-0.58506 -2.504288,-0.65782 -3.242282,-0.27579 -0.55137,0.28542 -4.481707,0.57508 -8.734082,0.64367 l -7.731592,0.12471 3.491687,0.67124 c 10.745748,2.06574 20.407719,2.48649 30.361449,1.32214 z m -0.52913,-3.48566 c 6.71073,-1.74792 12.12813,-6.00019 15.02734,-11.79537 2.20923,-4.41598 2.9097,-7.94343 2.69856,-13.58955 -0.29486,-7.88529 -3.22733,-12.42975 -12.93553,-20.04628 -2.99319,-2.3483 -5.44217,-4.47951 -5.44217,-4.73602 0,-0.2725 3.83626,-0.46639 9.22803,-0.46639 h 9.22803 v -16.2114 -16.2114 h -9.97625 c -8.35364,0 -9.97624,0.1169 -9.97624,0.71878 0,1.23714 -0.89536,1.34876 -2.85107,0.35544 -6.29852,-3.19908 -15.917907,-2.36177 -22.674046,1.97363 -8.926088,5.72786 -13.183584,18.60495 -9.41934,28.48944 1.78255,4.68079 4.861414,8.30948 11.331933,13.35563 3.247574,2.53267 5.904681,4.85949 5.904681,5.1707 0,0.39696 -2.791321,0.60634 -9.352732,0.70154 l -9.352732,0.13571 v 15.95099 15.95099 h 10.225654 c 8.756928,0 10.225653,-0.10747 10.225653,-0.74822 0,-0.95521 1.148969,-0.95352 3.001439,0.004 3.46818,1.79347 10.31666,2.24555 15.10879,0.99735 z m -12.12179,-4.07845 c -1.23309,-0.43141 -3.18149,-1.43079 -4.329782,-2.22084 -3.330907,-2.29173 -5.649156,-1.84097 -5.649156,1.0984 0,0.8922 -0.421158,0.95683 -6.235154,0.95683 h -6.235155 v -11.97149 -11.9715 h 8.912211 8.912212 l 3.433394,2.74069 c 2.15184,1.71769 3.91295,2.74172 4.71818,2.74346 1.78647,0.004 3.66515,-2.08061 3.27526,-3.63405 -0.20334,-0.8102 -4.05801,-4.11586 -11.907795,-10.21179 -15.297006,-11.87925 -17.103634,-14.26545 -17.084051,-22.56468 0.017,-7.2062 2.413271,-12.61211 7.304273,-16.47822 6.753657,-5.33846 16.198763,-5.80688 23.291513,-1.15512 3.30087,2.16487 4.91391,2.02393 5.15251,-0.45021 l 0.15619,-1.61954 h 6.23515 6.23516 l 0.13422,11.4101 c 0.0941,7.99733 -0.0361,11.61531 -0.43518,12.0962 -0.44095,0.53131 -2.4182,0.6861 -8.76406,0.6861 h -8.19465 l -3.86108,-2.99287 c -2.12359,-1.64608 -4.35685,-2.99288 -4.9628,-2.99288 -1.43585,0 -3.09697,1.68659 -3.09697,3.14443 0,1.51381 1.37925,2.75491 13.05979,11.75166 10.10246,7.78125 12.64996,10.2224 14.36508,13.76536 2.23232,4.61137 2.21468,10.97233 -0.0472,17.01773 -1.9279,5.15275 -7.53725,9.78721 -13.51499,11.16609 -3.15925,0.72874 -8.31256,0.57991 -10.86713,-0.31386 z m -27.936183,0.15607 v -3.66882 l -3.59179,-1.32609 c -4.212248,-1.55516 -4.84747,-1.28212 -5.240298,2.25246 -0.298444,2.68534 0.84418,3.94607 4.87193,5.3755 4.063027,1.44195 3.960158,1.51035 3.960158,-2.63305 z m 61.313703,-5.11342 5.52715,-1.79887 v -11.73282 -11.73281 l -2.00678,0.32089 c -1.10373,0.1765 -3.09803,0.55493 -4.43177,0.84097 l -2.42498,0.52006 0.69067,2.29494 c 1.61108,5.3532 0.22349,15.35777 -2.80879,20.25148 -0.81876,1.32138 -1.48866,2.49982 -1.48866,2.61877 0,0.50713 1.74298,0.10984 6.94316,-1.58261 z M 75.819477,200.8347 v -12.15715 l -1.870546,-0.2999 c -1.0288,-0.16494 -2.600059,-0.44615 -3.491686,-0.62491 l -1.62114,-0.32502 v 11.74287 11.74288 l 2.868171,0.99981 c 1.577494,0.5499 3.148753,1.01753 3.491686,1.03919 0.482834,0.0305 0.623515,-2.70359 0.623515,-12.11777 z m 66.217343,-14.41516 c 0.71249,-0.55502 0.80088,-1.80566 0.19512,-2.76076 -0.33543,-0.52887 -1.3237,-0.46933 -5.25559,0.31667 -2.66335,0.53241 -4.93482,1.06039 -5.04771,1.17327 -0.11288,0.11288 0.21468,0.89575 0.72792,1.73971 l 0.93316,1.53446 3.91179,-0.75882 c 2.15149,-0.41735 4.19237,-0.97739 4.53531,-1.24453 z m -50.111627,0.67762 c -0.69714,-0.58187 -2.349824,-1.05003 -4.489311,-1.27168 -3.262219,-0.33797 -15.169574,-2.42725 -17.47745,-3.06661 -1.031882,-0.28587 -1.122327,-0.14621 -1.122327,1.73299 0,2.22675 -0.14216,2.13113 4.489311,3.01951 1.23456,0.23681 6.172803,0.44768 10.973871,0.46861 8.550219,0.0373 8.706593,0.0192 7.625906,-0.88282 z m -5.841216,-4.84157 c -3.61561,-3.08652 -6.051758,-6.14627 -7.843286,-9.851 l -1.174183,-2.42811 -3.325124,0.30775 c -5.22052,0.48318 -4.958677,0.14373 -4.796847,6.21849 l 0.140974,5.29188 2.743468,0.63487 c 4.416555,1.02203 13.55568,2.53231 15.62778,2.58256 l 1.910441,0.0463 z m 53.424593,0.48031 3.1842,-0.79985 -0.14092,-5.29188 c -0.13772,-5.17161 -0.17093,-5.30624 -1.46101,-5.9235 -0.72604,-0.34738 -2.35342,-0.77324 -3.61639,-0.94635 -2.2235,-0.30477 -2.2963,-0.27343 -2.2963,0.98831 v 1.30305 l -8.60452,0.13648 -8.60451,0.13648 4.80209,3.82629 c 2.64114,2.10446 5.5592,4.75497 6.48456,5.89003 1.67459,2.05408 1.69509,2.06238 4.37554,1.77226 1.48118,-0.16031 4.12595,-0.65141 5.87726,-1.09132 z M 76.248988,165.97878 c -0.495365,-3.09513 0.144765,-8.95211 1.403811,-12.84441 0.488088,-1.50891 1.848922,-4.17968 3.024075,-5.93505 l 2.136642,-3.19159 -1.12766,-0.75873 c -2.224825,-1.49694 -5.374617,-5.12608 -6.673253,-7.68882 -0.727384,-1.43542 -1.589908,-4.18514 -1.916719,-6.11047 l -0.594203,-3.50062 -1.57313,2.74347 c -1.998208,3.48479 -5.367208,13.74971 -6.335936,19.30481 -1.394504,7.99668 -0.759064,14.83157 1.644452,17.68798 1.756022,2.08692 3.75441,2.86936 7.387963,2.89267 l 3.043082,0.0195 z m 66.401452,1.49644 c 6.24552,-3.19087 6.41745,-15.10812 0.46367,-32.13849 -1.58237,-4.52624 -3.67505,-8.63942 -4.39552,-8.63942 -0.2244,0 -0.53548,1.23523 -0.6913,2.74495 -0.15582,1.50972 -0.86062,4.00597 -1.56622,5.54722 l -1.28292,2.80226 v 15.4029 15.40291 h 2.63777 c 1.75204,0 3.37542,-0.37686 4.83452,-1.12233 z M 86.222396,141.41648 c 2.773837,-1.9928 5.046772,-3.04158 9.300169,-4.2913 2.150412,-0.63183 2.595037,-0.88936 1.579546,-0.9149 -5.295355,-0.13314 -16.683164,-4.78789 -20.98799,-8.5788 l -2.448825,-2.15648 0.286351,3.15794 c 0.399386,4.4045 2.648272,8.78257 6.159961,11.99206 1.524401,1.39321 2.977495,2.53312 3.229098,2.53312 0.251603,0 1.548364,-0.78374 2.88169,-1.74164 z m 26.190764,-3.49589 c 0.24293,-0.63305 1.94143,-0.74822 11.03457,-0.74822 h 10.74746 l 0.9945,-1.62114 c 1.21035,-1.97299 1.8844,-4.24668 2.31231,-7.7998 l 0.3236,-2.68697 -2.79733,2.27845 c -3.78981,3.08684 -6.47137,4.59682 -11.28013,6.3518 -4.22531,1.54205 -11.15468,2.95919 -14.69828,3.00597 l -2.05461,0.0271 2.24465,0.91878 c 2.84968,1.16642 2.83141,1.16484 3.17326,0.274 z m -0.9286,-2.26073 c 9.03166,-1.01938 17.77926,-4.38734 22.56057,-8.68614 l 2.5237,-2.26903 0.32639,-4.11652 c 0.52027,-6.56192 0.45342,-7.5147 -0.71835,-10.23856 -1.57359,-3.65791 -2.21228,-4.06238 -3.88493,-2.46027 -1.70641,1.63446 -4.57723,2.84922 -6.69991,2.83502 -2.44696,-0.0164 -5.56458,-1.64116 -7.1583,-3.73064 l -1.41483,-1.85494 -1.91771,2.05588 -1.9177,2.05588 3.06038,2.11412 c 1.68322,1.16277 3.43338,2.74722 3.88926,3.521 0.79766,1.35391 0.78602,1.44191 -0.30904,2.33723 -0.62585,0.51169 -2.38728,1.18972 -3.91429,1.50672 -1.527,0.31701 -3.5963,1.06098 -4.59843,1.65327 -2.60896,1.54199 -8.53196,1.53333 -11.15391,-0.0163 -1.017323,-0.60125 -3.132312,-1.33029 -4.69998,-1.62009 -3.226652,-0.59648 -5.172444,-1.66897 -5.172444,-2.85096 0,-1.04866 3.079843,-3.93222 5.540886,-5.18775 1.067715,-0.54471 1.941299,-1.17288 1.941299,-1.39594 0,-0.83749 -3.551695,-4.30647 -3.802961,-3.7144 -1.105771,2.60561 -4.973172,5.10804 -7.919129,5.12413 -2.536031,0.0138 -5.083811,-0.93885 -6.801316,-2.54324 l -1.642298,-1.53414 -1.096692,1.37539 c -0.60318,0.75646 -1.481459,2.59865 -1.95173,4.09377 -0.715039,2.27329 -0.757384,3.04433 -0.25862,4.70906 0.372837,1.24442 0.471479,3.15734 0.263135,5.10283 l -0.333285,3.11216 2.668123,2.12912 c 4.880018,3.89418 12.183035,6.96268 18.967659,7.96963 7.625983,1.13182 9.638803,1.19929 15.624453,0.5237 z m -21.662133,-5.78754 c -1.375732,-1.74896 -1.315991,-3.73366 0.153955,-5.1146 1.175762,-1.10457 1.25875,-1.11025 8.20039,-0.56153 5.038658,0.3983 8.992718,0.40534 14.047088,0.025 7.44151,-0.55993 8.48463,-0.39327 9.50813,1.51915 0.2989,0.5585 0.3985,1.6754 0.22134,2.48201 -0.63452,2.88895 -1.0607,2.96424 -16.77871,2.96424 H 90.856256 Z m 4.755881,-0.47234 c -0.166525,-0.43396 -0.302774,-0.98495 -0.302774,-1.22443 0,-0.67056 -3.49221,-1.17843 -4.077639,-0.593 -0.817834,0.81783 1.332374,2.60645 3.133382,2.60645 1.208286,0 1.483085,-0.17387 1.247031,-0.78902 z m 20.140892,0.41491 c -0.03,-1.46831 -1.02732,-1.65565 -9.3792,-1.76178 -8.634445,-0.10971 -9.069216,-0.0293 -9.069216,1.67787 0,0.26164 3.956526,0.45802 9.228026,0.45802 5.07542,0 9.22459,-0.16835 9.22039,-0.37411 z m 5.08119,-0.45142 c 1.95378,-1.76815 0.57841,-2.77434 -2.29761,-1.68088 -1.80051,0.68455 -1.76202,2.50641 0.053,2.50641 0.73285,0 1.74294,-0.37149 2.24465,-0.82553 z m -23.547156,-1.63574 c 0.893069,-1.66872 0.62517,-2.52686 -0.788846,-2.52686 -1.110125,0 -1.260253,0.16775 -1.004436,1.12233 0.165425,0.61728 0.303838,1.40291 0.307584,1.74584 0.01037,0.94941 0.904908,0.7439 1.485698,-0.34131 z m 19.867486,-0.65631 c 0.38726,-1.47797 0.31841,-1.63547 -0.77956,-1.78338 -1.60404,-0.21608 -1.6977,-0.0451 -0.9951,1.81627 0.76146,2.01733 1.23977,2.00847 1.77466,-0.0329 z m -4.74537,0.31173 c 1.66791,-0.22861 2.20321,-0.49803 2.00676,-1.00999 -0.35519,-0.92559 -15.667631,-0.76893 -15.977554,0.16346 -0.109822,0.3304 0.417996,0.67972 1.206014,0.79818 2.33059,0.35035 10.34011,0.38069 12.76478,0.0483 z m -17.693587,-1.55876 c -0.10605,-0.55067 -0.623425,-0.87292 -1.401478,-0.87292 -0.778053,0 -1.295428,0.32225 -1.401478,0.87292 -0.131346,0.68203 0.175133,0.87292 1.401478,0.87292 1.226345,0 1.532824,-0.19089 1.401478,-0.87292 z m 26.317077,0.31834 c 0.359,-0.58089 -0.6001,-1.41995 -1.63806,-1.43303 -0.33328,-0.004 -0.84623,0.44129 -1.13988,0.98999 -0.47832,0.89375 -0.37934,0.99762 0.95064,0.99762 0.8165,0 1.63879,-0.24956 1.8273,-0.55458 z m 21.82903,-5.35449 c 0.95444,-1.6243 2.84563,-9.89428 2.4831,-10.85828 -0.21399,-0.56901 -2.31623,-1.68871 -3.17055,-1.68871 -0.26143,0 -0.47534,0.57771 -0.47534,1.28379 0,0.70608 -0.54059,2.89462 -1.20132,4.86342 -1.67209,4.98236 -1.99062,7.01435 -1.30143,8.30212 0.52862,0.98773 0.68006,1.02128 1.6668,0.36927 0.59695,-0.39444 1.49638,-1.41667 1.99874,-2.27161 z m -68.786641,-0.58507 c -0.02695,-2.11824 -1.903359,-10.85273 -2.557387,-11.90436 -0.16883,-0.27146 -3.116016,0.98977 -3.404831,1.45708 -0.131589,0.21292 0.08029,2.0572 0.470833,4.0984 1.132624,5.91969 3.011961,9.57583 4.747267,9.23552 0.597997,-0.11727 0.770821,-0.7877 0.744118,-2.88664 z m 36.540311,-0.52097 c 0.77232,-0.2918 2.03332,-1.13076 2.80223,-1.86435 1.08179,-1.0321 1.92804,-1.3462 3.7411,-1.38857 1.28868,-0.0301 2.51931,-0.089 2.73472,-0.1309 0.9598,-0.18657 -0.91181,-2.18812 -3.85623,-4.12396 -2.73018,-1.79499 -3.13852,-2.24804 -2.72413,-3.02234 0.2681,-0.50095 0.42345,-0.9084 0.34521,-0.90543 -0.0782,0.003 -1.24414,0.33967 -2.59089,0.74822 -3.21022,0.97385 -5.93455,0.91595 -9.14875,-0.19444 -1.440323,-0.49758 -2.618767,-0.72796 -2.618767,-0.51197 0,0.216 0.224466,0.53145 0.498813,0.70101 0.984474,0.60844 0.440197,1.51157 -1.429759,2.37244 -1.046558,0.4818 -2.762774,1.61936 -3.813813,2.52791 -2.261146,1.9546 -2.03389,3.09044 0.534925,2.67358 1.076796,-0.17474 2.223246,0.0438 3.303568,0.62967 0.909967,0.4935 2.543692,1.37482 3.630503,1.95848 2.18499,1.17343 6.22892,1.42321 8.59127,0.53065 z m 29.73147,-10.35922 c 0.25493,-2.03691 0.18718,-2.18956 -1.18401,-2.66756 -1.27369,-0.44401 -1.45442,-0.75041 -1.45442,-2.46581 0,-1.67353 -0.19976,-2.03737 -1.37173,-2.49833 -2.59551,-1.02087 -12.55961,-3.338914 -17.13736,-3.986824 -3.65084,-0.516721 -4.63259,-0.830635 -4.81826,-1.540637 -0.21154,-0.808944 -0.96499,-0.891689 -8.11943,-0.891689 -6.958929,0 -7.905206,0.09762 -8.04752,0.830191 -0.12501,0.643498 -1.395175,1.036904 -5.648213,1.749408 -3.017815,0.50557 -8.012174,1.616572 -11.098575,2.468891 l -5.611639,1.54968 v 2.13906 c 0,1.92608 -0.148309,2.19075 -1.489631,2.65834 -1.34496,0.46885 -1.461878,0.67948 -1.203867,2.16875 0.547881,3.16242 0.740893,3.20843 2.039183,0.48609 2.519084,-5.28219 6.75663,-8.10539 12.284366,-8.18426 3.638876,-0.0519 6.800348,1.16831 9.172228,3.54019 2.53555,2.53555 6.332508,4.05288 10.124088,4.04577 3.91594,-0.007 6.72909,-1.15819 9.83953,-4.02529 1.20571,-1.11139 3.00035,-2.35838 3.98808,-2.77108 2.33366,-0.97506 6.23514,-1.04741 9.36756,-0.17372 3.09632,0.86363 7.0926,4.66389 8.50338,8.08631 1.09965,2.66764 1.48083,2.56194 1.86624,-0.51748 z m -49.065868,-0.47946 c 1.83229,-1.36801 3.114264,-3.29596 2.776644,-4.17578 -0.693668,-1.80768 -5.704857,-2.85319 -9.228472,-1.92539 -2.471107,0.65066 -5.473047,2.45456 -5.478366,3.292 -0.0051,0.80436 2.021784,2.54994 3.990652,3.43679 2.173632,0.97909 6.215471,0.65958 7.939542,-0.62762 z m 38.707098,0.67221 c 0.94878,-0.39642 2.30801,-1.30373 3.02051,-2.01624 1.53855,-1.53855 1.19109,-2.21336 -2.00076,-3.88574 -3.73085,-1.95479 -11.19122,-1.17627 -11.65191,1.21592 -0.0869,0.4514 0.55041,1.62762 1.41631,2.61384 2.32102,2.64349 5.91468,3.45154 9.21585,2.07222 z m -55.790687,-3.65795 c 0.322496,-0.20512 0.659194,-1.26789 0.748219,-2.36172 0.161854,-1.98867 0.162042,-1.98883 3.653549,-3.12402 2.871023,-0.933457 8.137303,-2.103637 17.583135,-3.907019 0.61728,-0.11785 1.122328,-0.546695 1.122328,-0.952988 0,-0.625052 1.381503,-0.738715 8.978626,-0.738715 7.59712,0 8.97862,0.113663 8.97862,0.738715 0,0.805225 0.42517,0.932132 5.98575,1.786653 4.31501,0.66311 14.13585,3.104274 16.11339,4.005294 1.12089,0.51072 1.34504,0.93201 1.34504,2.52803 0,1.05335 0.0939,1.91518 0.20861,1.91518 0.11473,0 0.57037,0.13882 1.01251,0.30849 0.71861,0.27575 0.7891,-0.39422 0.66431,-6.314365 l -0.13959,-6.62285 -3.44011,-1.159716 c -1.89206,-0.637844 -5.75637,-1.73968 -8.58735,-2.448525 l -5.14724,-1.288809 -3.17873,1.51707 c -8.46303,4.039031 -18.04114,4.032275 -26.845708,-0.01894 l -3.303653,-1.520097 -5.674969,1.521639 c -3.121233,0.836902 -6.90953,1.9443 -8.418437,2.460885 l -2.743468,0.939246 -0.139181,6.56239 c -0.07655,3.609322 0.03568,6.558962 0.249406,6.554752 0.213723,-0.004 0.652447,-0.17546 0.974943,-0.38058 z m 5.149986,-16.168685 c 2.606295,-0.798952 6.197744,-1.762876 7.980998,-2.142054 3.218791,-0.684421 3.264127,-0.678678 6.257772,0.792588 4.350748,2.138233 7.844531,2.929357 12.966411,2.936082 5.14764,0.0068 9.16259,-0.895012 13.39765,-3.009155 l 2.9425,-1.468897 4.51117,1.059096 c 2.48114,0.582502 6.41794,1.703629 8.74845,2.491392 4.96924,1.67971 4.54897,1.614134 4.54897,0.709778 0,-0.397385 0.56116,-1.328025 1.24703,-2.068088 0.68587,-0.740062 1.24703,-1.520965 1.24703,-1.735339 0,-1.570894 -10.17063,-5.406661 -19.95249,-7.524914 -4.57592,-0.99091 -6.65528,-1.134182 -16.46081,-1.134182 -9.80553,0 -11.884896,0.143272 -16.460809,1.134182 -7.057814,1.528362 -17.288854,4.968888 -18.895973,6.354396 l -1.305927,1.125848 1.140532,1.412386 c 0.627292,0.776813 1.274072,1.817896 1.437288,2.31352 0.198746,0.603512 0.56341,0.786341 1.104124,0.553566 0.444052,-0.191161 2.93979,-1.001254 5.546084,-1.800205 z"
         id="path2" /><path
         style="fill:#8c181c"
         d="m 88.04038,261.32053 c -16.707694,-1.56352 -31.975203,-5.40024 -43.646081,-10.96827 -9.795244,-4.67318 -14.553984,-8.21435 -16.019804,-11.92098 -0.570623,-1.44294 -0.733682,-12.86356 -0.939816,-65.82481 l -0.249406,-64.07897 -2.572448,-1.76426 c -1.414847,-0.97035 -3.266688,-2.14664 -4.115202,-2.61399 l -1.542754,-0.84972 v -5.659782 c 0,-3.736967 0.203356,-5.863135 0.598575,-6.258354 0.447528,-0.447528 6.170289,-0.598575 22.678412,-0.598575 21.56019,0 22.092387,0.02345 22.613088,0.996388 0.311619,0.582266 0.474402,3.209565 0.391659,6.321345 l -0.141591,5.324958 -3.324345,2.03376 c -1.82839,1.11857 -3.79528,2.46392 -4.370866,2.98966 l -1.04652,0.95589 0.13096,56.52097 0.130961,56.52097 1.27149,1.27142 c 2.895179,2.89501 16.974153,7.79106 28.158439,9.79227 5.723187,1.02406 8.036589,1.1594 19.703089,1.1527 14.11145,-0.008 17.82886,-0.40444 28.01787,-2.98722 9.04084,-2.29174 19.2659,-6.65054 20.34912,-8.67455 0.35536,-0.664 0.48057,-19.01194 0.39404,-57.74199 l -0.12683,-56.76873 -4.1152,-2.453 -4.1152,-2.453 v -5.873826 c 0,-5.504378 0.0697,-5.922661 1.10861,-6.650324 0.96144,-0.673418 3.94137,-0.776503 22.44656,-0.776503 25.65481,0 23.33319,-0.736776 23.33319,7.404875 0,6.190658 0.21434,5.822748 -5.0909,8.738338 -1.83978,1.01108 -3.52327,2.11344 -3.74109,2.4497 -0.21782,0.33625 -0.50827,29.24719 -0.64544,64.24653 l -0.24941,63.63516 -1.39412,2.1065 c -1.74839,2.6418 -9.97319,8.1926 -17.30323,11.67772 -10.90528,5.18498 -25.57342,9.0102 -40.52243,10.5676 -7.95582,0.82885 -28.1819,0.94671 -36.05338,0.2101 z m 15.71528,-43.67376 c -1.23309,-0.43141 -3.18149,-1.43079 -4.329782,-2.22084 -3.330907,-2.29173 -5.649156,-1.84097 -5.649156,1.0984 0,0.8922 -0.421158,0.95683 -6.235154,0.95683 h -6.235155 v -11.97149 -11.9715 h 8.912211 8.912212 l 3.433394,2.74069 c 2.15184,1.71769 3.91295,2.74172 4.71818,2.74346 1.78647,0.004 3.66515,-2.08061 3.27526,-3.63405 -0.20334,-0.8102 -4.05801,-4.11586 -11.907795,-10.21179 -15.297006,-11.87925 -17.103634,-14.26545 -17.084051,-22.56468 0.017,-7.2062 2.413271,-12.61211 7.304273,-16.47822 6.753657,-5.33846 16.198763,-5.80688 23.291513,-1.15512 3.30087,2.16487 4.91391,2.02393 5.15251,-0.45021 l 0.15619,-1.61954 h 6.23515 6.23516 l 0.13422,11.4101 c 0.0941,7.99733 -0.0361,11.61531 -0.43518,12.0962 -0.44095,0.53131 -2.4182,0.6861 -8.76406,0.6861 h -8.19465 l -3.86108,-2.99287 c -2.12359,-1.64608 -4.35685,-2.99288 -4.9628,-2.99288 -1.43585,0 -3.09697,1.68659 -3.09697,3.14443 0,1.51381 1.37925,2.75491 13.05979,11.75166 10.10246,7.78125 12.64996,10.2224 14.36508,13.76536 2.23232,4.61137 2.21468,10.97233 -0.0472,17.01773 -1.9279,5.15275 -7.53725,9.78721 -13.51499,11.16609 -3.15925,0.72874 -8.31256,0.57991 -10.86713,-0.31386 z"
         id="path1" /></g></g></svg>
